<svg xmlns="http://www.w3.org/2000/svg" viewBox="0 -0.5 14 14" shape-rendering="crispEdges">
<metadata>Made with Pixels to Svg https://codepen.io/shshaw/pen/XbxvNj</metadata>
<path stroke="#0f0a0c" d="M4 0h6M3 1h1M10 1h1M2 2h1M11 2h1M1 3h1M12 3h1M0 4h1M13 4h1M0 5h1M13 5h1M0 6h1M13 6h1M0 7h1M13 7h1M0 8h1M13 8h1M0 9h1M13 9h1M1 10h1M12 10h1M2 11h1M11 11h1M3 12h1M10 12h1M4 13h6" />
<path stroke="#fff0b0" d="M4 1h6M3 2h1M2 3h1M1 4h1M1 5h1M1 6h1M1 7h1M1 8h1M1 9h1" />
<path stroke="#ffd117" d="M4 2h3M8 2h2M3 3h2M9 3h2M2 4h2M5 4h2M8 4h1M10 4h2M2 5h2M5 5h2M8 5h4M2 6h3M9 6h3M2 7h5M8 7h1M10 7h2M2 8h2M5 8h2M8 8h1M10 8h2M2 9h3M9 9h3M2 10h5M8 10h3M3 11h7" />
<path stroke="#b29210" d="M7 2h1M10 2h1M5 3h4M11 3h1M4 4h1M7 4h1M9 4h1M12 4h1M4 5h1M7 5h1M12 5h1M5 6h4M12 6h1M7 7h1M9 7h1M12 7h1M4 8h1M7 8h1M9 8h1M12 8h1M5 9h4M12 9h1M7 10h1M11 10h1M10 11h1M4 12h6" />
</svg>