<svg xmlns="http://www.w3.org/2000/svg" viewBox="0 -0.5 62 48" shape-rendering="crispEdges">
<metadata>Made with Pixels to Svg https://codepen.io/shshaw/pen/XbxvNj</metadata>
<path stroke="#0f0a0c" d="M4 0h54M3 1h1M58 1h1M2 2h1M59 2h1M1 3h1M60 3h1M0 4h1M61 4h1M0 5h1M61 5h1M0 6h1M61 6h1M0 7h1M61 7h1M0 8h1M36 8h6M61 8h1M0 9h1M35 9h1M42 9h1M61 9h1M0 10h1M23 10h2M34 10h1M43 10h1M61 10h1M0 11h1M23 11h2M33 11h1M44 11h1M61 11h1M0 12h1M15 12h2M21 12h4M32 12h1M45 12h1M61 12h1M0 13h1M15 13h2M21 13h4M32 13h1M45 13h1M61 13h1M0 14h1M13 14h6M23 14h2M32 14h1M45 14h1M61 14h1M0 15h1M13 15h6M23 15h2M32 15h1M45 15h1M61 15h1M0 16h1M15 16h2M23 16h2M32 16h1M45 16h1M61 16h1M0 17h1M15 17h2M23 17h2M32 17h1M45 17h1M61 17h1M0 18h1M21 18h6M33 18h1M44 18h1M61 18h1M0 19h1M21 19h6M34 19h1M43 19h1M61 19h1M0 20h1M35 20h1M42 20h1M61 20h1M0 21h1M36 21h6M61 21h1M0 22h1M61 22h1M0 23h1M61 23h1M0 24h1M61 24h1M0 25h1M61 25h1M0 26h1M61 26h1M0 27h1M61 27h1M0 28h1M61 28h1M0 29h1M7 29h1M10 29h1M13 29h2M17 29h1M21 29h1M23 29h4M31 29h2M37 29h1M40 29h1M42 29h3M47 29h2M51 29h4M61 29h1M0 30h1M7 30h1M10 30h1M12 30h1M15 30h1M17 30h1M21 30h1M23 30h1M30 30h1M33 30h1M37 30h2M40 30h1M43 30h1M46 30h1M49 30h1M51 30h1M61 30h1M0 31h1M7 31h4M12 31h4M18 31h1M20 31h1M23 31h3M30 31h4M37 31h1M39 31h2M43 31h1M46 31h1M51 31h3M61 31h1M0 32h1M7 32h1M10 32h1M12 32h1M15 32h1M18 32h1M20 32h1M23 32h1M30 32h1M33 32h1M37 32h1M40 32h1M43 32h1M46 32h1M49 32h1M51 32h1M61 32h1M0 33h1M7 33h1M10 33h1M12 33h1M15 33h1M19 33h1M23 33h4M30 33h1M33 33h1M37 33h1M40 33h1M42 33h3M47 33h2M51 33h4M61 33h1M0 34h1M61 34h1M0 35h1M61 35h1M0 36h1M61 36h1M0 37h1M18 37h5M24 37h3M29 37h4M34 37h4M39 37h3M45 37h1M61 37h1M0 38h1M20 38h1M24 38h1M27 38h1M29 38h1M34 38h1M39 38h1M42 38h1M45 38h1M61 38h1M0 39h1M20 39h1M24 39h3M29 39h3M34 39h3M39 39h3M45 39h1M61 39h1M0 40h1M20 40h1M24 40h1M26 40h1M29 40h1M34 40h1M39 40h1M61 40h1M0 41h1M20 41h1M24 41h1M27 41h1M29 41h4M34 41h4M39 41h1M45 41h1M61 41h1M0 42h1M61 42h1M0 43h1M61 43h1M1 44h1M60 44h1M2 45h1M59 45h1M3 46h1M58 46h1M4 47h54" />
<path stroke="#f5f4ee" d="M4 1h54M3 2h7M11 2h48M2 3h3M1 4h3M1 5h2M1 6h2M1 7h2M1 8h2M1 9h2M1 10h2M1 11h2M1 12h2M1 13h2M1 14h2M1 15h2M1 16h2M1 17h2M1 18h2M1 19h2M1 20h2M1 21h2M1 22h2M1 23h2M1 24h2M1 25h2M1 26h2M1 27h2M1 28h2M1 29h2M1 30h2M1 31h2M1 32h2M1 33h2M1 34h2M1 35h2M1 36h2M1 37h2M1 38h2M1 39h2M1 40h2M1 41h2M1 42h2M1 43h2M2 44h1" />
<path stroke="#f8f7f3" d="M10 2h1" />
<path stroke="#d1cdbe" d="M5 3h54M4 4h55M3 5h56M3 6h56M3 7h56M3 8h33M42 8h17M3 9h32M43 9h16M3 10h20M25 10h9M44 10h15M3 11h20M25 11h8M45 11h14M3 12h12M17 12h4M25 12h7M46 12h13M3 13h12M17 13h4M25 13h7M46 13h13M3 14h10M19 14h4M25 14h7M46 14h13M3 15h10M19 15h4M25 15h7M46 15h13M3 16h12M17 16h6M25 16h7M46 16h13M3 17h12M17 17h6M25 17h7M46 17h13M3 18h18M27 18h6M45 18h14M3 19h18M27 19h7M44 19h15M3 20h32M43 20h16M3 21h33M42 21h17M3 22h56M3 23h56M3 24h56M3 25h56M3 26h56M3 27h56M3 28h56M3 29h4M8 29h2M11 29h2M15 29h2M18 29h3M22 29h1M27 29h4M33 29h4M38 29h2M41 29h1M45 29h2M49 29h2M55 29h4M3 30h4M8 30h2M11 30h1M16 30h1M18 30h3M22 30h1M24 30h6M34 30h3M39 30h1M41 30h2M44 30h2M47 30h2M50 30h1M52 30h7M3 31h4M11 31h1M16 31h2M19 31h1M21 31h2M26 31h4M34 31h3M38 31h1M41 31h2M44 31h2M47 31h4M54 31h5M3 32h4M8 32h2M11 32h1M13 32h2M16 32h2M19 32h1M21 32h2M24 32h6M31 32h2M34 32h3M38 32h2M41 32h2M44 32h2M47 32h2M50 32h1M52 32h7M3 33h4M8 33h2M11 33h1M13 33h2M16 33h3M20 33h3M27 33h3M31 33h2M34 33h3M38 33h2M41 33h1M45 33h2M49 33h2M55 33h4M3 34h56M3 35h56M3 36h56M3 37h15M23 37h1M27 37h2M33 37h1M38 37h1M42 37h3M46 37h13M3 38h17M21 38h3M28 38h1M30 38h4M35 38h4M43 38h2M46 38h13M3 39h17M21 39h3M27 39h2M32 39h2M37 39h2M42 39h3M46 39h13M3 40h17M21 40h3M25 40h1M27 40h2M30 40h4M35 40h4M40 40h19M3 41h17M21 41h3M25 41h2M28 41h1M33 41h1M38 41h1M40 41h5M46 41h13M3 42h56M3 43h55M3 44h54" />
<path stroke="#9e9b90" d="M59 3h1M59 4h2M59 5h2M59 6h2M59 7h2M59 8h2M59 9h2M59 10h2M59 11h2M59 12h2M59 13h2M59 14h2M59 15h2M59 16h2M59 17h2M59 18h2M59 19h2M59 20h2M59 21h2M59 22h2M59 23h2M59 24h2M59 25h2M59 26h2M59 27h2M59 28h2M59 29h2M59 30h2M59 31h2M59 32h2M59 33h2M59 34h2M59 35h2M59 36h2M59 37h2M59 38h2M59 39h2M59 40h2M59 41h2M59 42h2M58 43h3M57 44h3M3 45h56M4 46h54" />
<path stroke="#fff0b0" d="M36 9h6M35 10h1M34 11h1M33 12h1M33 13h1M33 14h1M33 15h1M33 16h1M33 17h1" />
<path stroke="#ffd117" d="M36 10h3M40 10h2M35 11h2M41 11h2M34 12h2M37 12h2M40 12h1M42 12h2M34 13h2M37 13h2M40 13h4M34 14h3M41 14h3M34 15h5M40 15h1M42 15h2M34 16h2M37 16h2M40 16h1M42 16h2M34 17h3M41 17h3M34 18h5M40 18h3M35 19h7" />
<path stroke="#b29210" d="M39 10h1M42 10h1M37 11h4M43 11h1M36 12h1M39 12h1M41 12h1M44 12h1M36 13h1M39 13h1M44 13h1M37 14h4M44 14h1M39 15h1M41 15h1M44 15h1M36 16h1M39 16h1M41 16h1M44 16h1M37 17h4M44 17h1M39 18h1M43 18h1M42 19h1M36 20h6" />
<path stroke="#e3dfcf" d="M13 30h2M31 30h2M25 38h2M40 38h2" />
</svg>