<svg xmlns="http://www.w3.org/2000/svg" viewBox="0 -0.5 89 18" shape-rendering="crispEdges">
<metadata>Made with Pixels to Svg https://codepen.io/shshaw/pen/XbxvNj</metadata>
<path stroke="#0f0a0c" d="M3 0h83M2 1h1M86 1h1M1 2h1M87 2h1M0 3h1M88 3h1M0 4h1M88 4h1M0 5h1M88 5h1M0 6h1M5 6h3M9 6h5M16 6h2M20 6h3M25 6h5M33 6h1M37 6h1M40 6h2M44 6h1M47 6h1M49 6h3M56 6h5M62 6h3M67 6h4M72 6h4M77 6h3M83 6h1M88 6h1M0 7h1M4 7h1M11 7h1M15 7h1M18 7h1M20 7h1M23 7h1M27 7h1M33 7h1M37 7h1M39 7h1M42 7h1M44 7h1M47 7h1M49 7h1M52 7h1M58 7h1M62 7h1M65 7h1M67 7h1M72 7h1M77 7h1M80 7h1M83 7h1M88 7h1M0 8h1M5 8h2M11 8h1M15 8h4M20 8h3M27 8h1M34 8h3M39 8h1M42 8h1M44 8h1M47 8h1M49 8h3M58 8h1M62 8h3M67 8h3M72 8h3M77 8h3M83 8h1M88 8h1M0 9h1M7 9h1M11 9h1M15 9h1M18 9h1M20 9h1M22 9h1M27 9h1M35 9h1M39 9h1M42 9h1M44 9h1M47 9h1M49 9h1M51 9h1M58 9h1M62 9h1M64 9h1M67 9h1M72 9h1M77 9h1M88 9h1M0 10h1M4 10h3M11 10h1M15 10h1M18 10h1M20 10h1M23 10h1M27 10h1M35 10h1M40 10h2M45 10h2M49 10h1M52 10h1M58 10h1M62 10h1M65 10h1M67 10h4M72 10h4M77 10h1M83 10h1M88 10h1M0 11h1M88 11h1M0 12h1M88 12h1M0 13h1M88 13h1M0 14h1M88 14h1M1 15h1M87 15h1M2 16h1M86 16h1M3 17h83" />
<path stroke="#f5f4ee" d="M3 1h83M2 2h85M1 3h2M1 4h2M1 5h2M1 6h2M1 7h2M1 8h2M1 9h2M1 10h2M1 11h2M1 12h2M1 13h2M1 14h2M2 15h1" />
<path stroke="#d1cdbe" d="M3 3h83M3 4h83M3 5h83M3 6h2M8 6h1M14 6h2M18 6h2M23 6h2M30 6h3M34 6h3M38 6h2M42 6h2M45 6h2M48 6h1M52 6h4M61 6h1M65 6h2M71 6h1M76 6h1M80 6h3M84 6h2M3 7h1M5 7h6M12 7h3M16 7h2M19 7h1M21 7h2M24 7h3M28 7h5M34 7h3M38 7h1M40 7h2M43 7h1M45 7h2M48 7h1M50 7h2M53 7h5M59 7h3M63 7h2M66 7h1M68 7h4M73 7h4M78 7h2M81 7h2M84 7h2M3 8h2M7 8h4M12 8h3M19 8h1M23 8h4M28 8h6M37 8h2M40 8h2M43 8h1M45 8h2M48 8h1M52 8h6M59 8h3M65 8h2M70 8h2M75 8h2M80 8h3M84 8h2M3 9h4M8 9h3M12 9h3M16 9h2M19 9h1M21 9h1M23 9h4M28 9h7M36 9h3M40 9h2M43 9h1M45 9h2M48 9h1M50 9h1M52 9h6M59 9h3M63 9h1M65 9h2M68 9h4M73 9h4M78 9h8M3 10h1M7 10h4M12 10h3M16 10h2M19 10h1M21 10h2M24 10h3M28 10h7M36 10h4M42 10h3M47 10h2M50 10h2M53 10h5M59 10h3M63 10h2M66 10h1M71 10h1M76 10h1M78 10h5M84 10h2M3 11h83M3 12h83M3 13h83M3 14h83" />
<path stroke="#9e9b90" d="M86 3h2M86 4h2M86 5h2M86 6h2M86 7h2M86 8h2M86 9h2M86 10h2M86 11h2M86 12h2M86 13h2M86 14h2M3 15h84M3 16h83" />
</svg>