<svg xmlns="http://www.w3.org/2000/svg" viewBox="0 -0.5 53 48" shape-rendering="crispEdges">
<metadata>Made with Pixels to Svg https://codepen.io/shshaw/pen/XbxvNj</metadata>
<path stroke="#0f0a0c" d="M4 0h45M3 1h1M49 1h1M2 2h1M50 2h1M1 3h1M51 3h1M0 4h1M52 4h1M0 5h1M52 5h1M0 6h1M52 6h1M0 7h1M52 7h1M0 8h1M52 8h1M0 9h1M52 9h1M0 10h1M52 10h1M0 11h1M12 11h3M17 11h4M22 11h3M27 11h4M32 11h4M37 11h1M41 11h1M52 11h1M0 12h1M12 12h1M15 12h1M17 12h1M22 12h1M25 12h1M27 12h1M32 12h1M37 12h2M40 12h2M52 12h1M0 13h1M12 13h3M17 13h3M22 13h1M25 13h1M27 13h3M32 13h3M37 13h1M39 13h1M41 13h1M52 13h1M0 14h1M12 14h1M14 14h1M17 14h1M22 14h1M25 14h1M27 14h1M32 14h1M37 14h1M41 14h1M52 14h1M0 15h1M12 15h1M15 15h1M17 15h4M22 15h3M27 15h4M32 15h4M37 15h1M41 15h1M52 15h1M0 16h1M52 16h1M0 17h1M52 17h1M0 18h1M52 18h1M0 19h1M52 19h1M0 20h1M52 20h1M0 21h1M52 21h1M0 22h1M52 22h1M0 23h1M52 23h1M0 24h1M52 24h1M0 25h1M52 25h1M0 26h1M52 26h1M0 27h1M52 27h1M0 28h1M52 28h1M0 29h1M52 29h1M0 30h1M52 30h1M0 31h1M52 31h1M0 32h1M52 32h1M0 33h1M12 33h5M18 33h3M23 33h4M28 33h4M33 33h3M39 33h3M52 33h1M0 34h1M14 34h1M18 34h1M21 34h1M23 34h1M28 34h1M33 34h1M36 34h1M38 34h1M52 34h1M0 35h1M14 35h1M18 35h3M23 35h3M28 35h3M33 35h3M39 35h2M52 35h1M0 36h1M14 36h1M18 36h1M20 36h1M23 36h1M28 36h1M33 36h1M41 36h1M52 36h1M0 37h1M14 37h1M18 37h1M21 37h1M23 37h4M28 37h4M33 37h1M38 37h3M52 37h1M0 38h1M52 38h1M0 39h1M52 39h1M0 40h1M52 40h1M0 41h1M52 41h1M0 42h1M52 42h1M0 43h1M52 43h1M1 44h1M51 44h1M2 45h1M50 45h1M3 46h1M49 46h1M4 47h45" />
<path stroke="#f5f4ee" d="M4 1h45M3 2h47M2 3h3M1 4h3M1 5h2M1 6h2M1 7h2M1 8h2M1 9h2M1 10h2M1 11h2M1 12h2M1 13h2M1 14h2M1 15h2M1 16h2M1 17h2M1 18h2M1 19h2M1 20h2M1 21h2M1 22h2M1 23h2M1 24h2M1 25h2M1 26h2M1 27h2M1 28h2M1 29h2M1 30h2M1 31h2M1 32h2M1 33h2M1 34h2M1 35h2M1 36h2M1 37h2M1 38h2M1 39h2M1 40h2M1 41h2M1 42h2M1 43h2M2 44h1" />
<path stroke="#d1cdbe" d="M5 3h45M4 4h46M3 5h47M3 6h47M3 7h47M3 8h47M3 9h47M3 10h47M3 11h9M15 11h2M21 11h1M25 11h2M31 11h1M36 11h1M38 11h3M42 11h8M3 12h9M13 12h2M16 12h1M18 12h4M23 12h2M26 12h1M28 12h4M33 12h4M39 12h1M42 12h8M3 13h9M15 13h2M20 13h2M23 13h2M26 13h1M30 13h2M35 13h2M38 13h1M40 13h1M42 13h8M3 14h9M13 14h1M15 14h2M18 14h4M23 14h2M26 14h1M28 14h4M33 14h4M38 14h3M42 14h8M3 15h9M13 15h2M16 15h1M21 15h1M25 15h2M31 15h1M36 15h1M38 15h3M42 15h8M3 16h47M3 17h47M3 18h47M3 19h47M3 20h47M3 21h47M3 22h15M22 22h1M26 22h2M32 22h1M37 22h13M3 23h15M19 23h4M24 23h2M27 23h1M29 23h4M34 23h16M3 24h15M21 24h2M26 24h2M31 24h2M36 24h14M3 25h15M19 25h4M24 25h1M26 25h2M29 25h4M34 25h16M3 26h15M19 26h4M24 26h2M27 26h1M32 26h1M37 26h13M3 27h47M3 28h47M3 29h47M3 30h47M3 31h47M3 32h47M3 33h9M17 33h1M21 33h2M27 33h1M32 33h1M36 33h3M42 33h8M3 34h11M15 34h3M19 34h2M22 34h1M24 34h4M29 34h4M34 34h2M37 34h1M39 34h11M3 35h11M15 35h3M21 35h2M26 35h2M31 35h2M36 35h3M41 35h9M3 36h11M15 36h3M19 36h1M21 36h2M24 36h4M29 36h4M34 36h7M42 36h8M3 37h11M15 37h3M19 37h2M22 37h1M27 37h1M32 37h1M34 37h4M41 37h9M3 38h47M3 39h47M3 40h47M3 41h47M3 42h47M3 43h46M3 44h45" />
<path stroke="#9e9b90" d="M50 3h1M50 4h2M50 5h2M50 6h2M50 7h2M50 8h2M50 9h2M50 10h2M50 11h2M50 12h2M50 13h2M50 14h2M50 15h2M50 16h2M50 17h2M50 18h2M50 19h2M50 20h2M50 21h2M50 22h2M50 23h2M50 24h2M50 25h2M50 26h2M50 27h2M50 28h2M50 29h2M50 30h2M50 31h2M50 32h2M50 33h2M50 34h2M50 35h2M50 36h2M50 37h2M50 38h2M50 39h2M50 40h2M50 41h2M50 42h2M49 43h3M48 44h3M3 45h47M4 46h45" />
<path stroke="#b987ff" d="M18 22h4M18 23h1M18 24h3M18 25h1M18 26h1" />
<path stroke="#e37739" d="M23 22h3M23 23h1M26 23h1M23 24h3M23 25h1M25 25h1M23 26h1M26 26h1" />
<path stroke="#4caf50" d="M28 22h4M28 23h1M28 24h3M28 25h1M28 26h4" />
<path stroke="#ff0073" d="M33 22h4M33 23h1M33 24h3M33 25h1M33 26h4" />
</svg>