<svg xmlns="http://www.w3.org/2000/svg" viewBox="0 -0.5 62 48" shape-rendering="crispEdges">
<metadata>Made with Pixels to Svg https://codepen.io/shshaw/pen/XbxvNj</metadata>
<path stroke="#0f0a0c" d="M4 0h54M3 1h1M58 1h1M2 2h1M59 2h1M1 3h1M60 3h1M0 4h1M61 4h1M0 5h1M61 5h1M0 6h1M61 6h1M0 7h1M61 7h1M0 8h1M61 8h1M0 9h1M61 9h1M0 10h1M61 10h1M0 11h1M61 11h1M0 12h1M61 12h1M0 13h1M61 13h1M0 14h1M61 14h1M0 15h1M61 15h1M0 16h1M61 16h1M0 17h1M61 17h1M0 18h1M61 18h1M0 19h1M61 19h1M0 20h1M61 20h1M0 21h1M61 21h1M0 22h1M61 22h1M0 23h1M61 23h1M0 24h1M61 24h1M0 25h1M61 25h1M0 26h1M61 26h1M0 27h1M61 27h1M0 28h1M61 28h1M0 29h1M61 29h1M0 30h1M61 30h1M0 31h1M61 31h1M0 32h1M61 32h1M0 33h1M61 33h1M0 34h1M61 34h1M0 35h1M61 35h1M0 36h1M61 36h1M0 37h1M61 37h1M0 38h1M61 38h1M0 39h1M61 39h1M0 40h1M61 40h1M0 41h1M61 41h1M0 42h1M61 42h1M0 43h1M61 43h1M1 44h1M60 44h1M2 45h1M59 45h1M3 46h1M58 46h1M4 47h54" />
<path stroke="#f5f4ee" d="M4 1h54M3 2h7M11 2h48M2 3h3M1 4h3M1 5h2M1 6h2M1 7h2M1 8h2M1 9h2M1 10h2M1 11h2M1 12h2M1 13h2M1 14h2M1 15h2M1 16h2M1 17h2M1 18h2M1 19h2M1 20h2M1 21h2M1 22h2M1 23h2M1 24h2M1 25h2M1 26h2M1 27h2M1 28h2M1 29h2M1 30h2M1 31h2M1 32h2M1 33h2M1 34h2M1 35h2M1 36h2M1 37h2M1 38h2M1 39h2M1 40h2M1 41h2M1 42h2M1 43h2M2 44h1" />
<path stroke="#f8f7f3" d="M10 2h1" />
<path stroke="#d1cdbe" d="M5 3h54M4 4h55M3 5h56M3 6h56M3 7h56M3 8h56M3 9h56M3 10h56M3 11h19M23 11h3M27 11h2M31 11h2M34 11h3M38 11h2M41 11h18M3 12h19M23 12h3M27 12h1M29 12h2M32 12h1M34 12h3M38 12h2M41 12h18M3 13h20M26 13h2M32 13h2M37 13h3M41 13h18M3 14h21M25 14h3M29 14h2M32 14h3M36 14h23M3 15h21M26 15h2M29 15h2M32 15h3M36 15h4M41 15h18M3 16h21M26 16h33M3 17h56M3 18h56M3 19h56M3 20h56M3 21h12M17 21h3M22 21h2M27 21h2M32 21h2M38 21h2M42 21h2M49 21h10M3 22h11M15 22h2M18 22h1M20 22h2M23 22h1M25 22h2M28 22h1M30 22h2M33 22h1M35 22h4M40 22h2M43 22h3M47 22h12M3 23h11M15 23h4M20 23h2M23 23h1M27 23h2M32 23h2M37 23h2M40 23h6M47 23h12M3 24h11M15 24h2M18 24h1M20 24h2M23 24h1M25 24h1M27 24h2M30 24h1M32 24h2M35 24h4M40 24h2M43 24h3M47 24h12M3 25h12M17 25h3M22 25h2M25 25h2M28 25h1M30 25h2M33 25h1M38 25h2M42 25h4M47 25h12M3 26h56M3 27h56M3 28h56M3 29h56M3 30h56M3 31h14M19 31h2M22 31h2M25 31h2M30 31h1M32 31h3M36 31h1M41 31h1M45 31h14M3 32h13M17 32h2M20 32h1M23 32h1M25 32h1M27 32h4M32 32h3M36 32h1M38 32h4M43 32h2M46 32h13M3 33h13M20 33h1M22 33h1M25 33h2M29 33h2M32 33h1M34 33h1M36 33h1M40 33h2M45 33h14M3 34h13M17 34h2M20 34h1M22 34h2M25 34h4M30 34h1M33 34h1M36 34h1M38 34h4M43 34h1M45 34h14M3 35h13M17 35h2M20 35h1M22 35h2M25 35h1M29 35h2M32 35h3M36 35h1M41 35h1M43 35h2M46 35h13M3 36h56M3 37h56M3 38h56M3 39h56M3 40h56M3 41h56M3 42h56M3 43h55M3 44h54" />
<path stroke="#9e9b90" d="M59 3h1M59 4h2M59 5h2M59 6h2M59 7h2M59 8h2M59 9h2M59 10h2M59 11h2M59 12h2M59 13h2M59 14h2M59 15h2M59 16h2M59 17h2M59 18h2M59 19h2M59 20h2M59 21h2M59 22h2M59 23h2M59 24h2M59 25h2M59 26h2M59 27h2M59 28h2M59 29h2M59 30h2M59 31h2M59 32h2M59 33h2M59 34h2M59 35h2M59 36h2M59 37h2M59 38h2M59 39h2M59 40h2M59 41h2M59 42h2M58 43h3M57 44h3M3 45h56M4 46h54" />
<path stroke="#357a38" d="M22 11h1M26 11h1M29 11h2M33 11h1M37 11h1M40 11h1M22 12h1M26 12h1M28 12h1M31 12h1M33 12h1M37 12h1M40 12h1M23 13h3M28 13h4M34 13h3M40 13h1M24 14h1M28 14h1M31 14h1M35 14h1M24 15h1M28 15h1M31 15h1M35 15h1M40 15h1M15 21h2M20 21h2M24 21h3M29 21h3M34 21h4M40 21h2M44 21h5M14 22h1M17 22h1M19 22h1M22 22h1M24 22h1M27 22h1M29 22h1M32 22h1M34 22h1M39 22h1M42 22h1M46 22h1M14 23h1M19 23h1M22 23h1M24 23h3M29 23h3M34 23h3M39 23h1M46 23h1M14 24h1M17 24h1M19 24h1M22 24h1M24 24h1M26 24h1M29 24h1M31 24h1M34 24h1M39 24h1M42 24h1M46 24h1M15 25h2M20 25h2M24 25h1M27 25h1M29 25h1M32 25h1M34 25h4M40 25h2M46 25h1M17 31h2M21 31h1M24 31h1M27 31h3M31 31h1M35 31h1M37 31h4M42 31h3M16 32h1M19 32h1M21 32h2M24 32h1M26 32h1M31 32h1M35 32h1M37 32h1M42 32h1M45 32h1M16 33h4M21 33h1M23 33h2M27 33h2M31 33h1M33 33h1M35 33h1M37 33h3M42 33h3M16 34h1M19 34h1M21 34h1M24 34h1M29 34h1M31 34h2M34 34h2M37 34h1M42 34h1M44 34h1M16 35h1M19 35h1M21 35h1M24 35h1M26 35h3M31 35h1M35 35h1M37 35h4M42 35h1M45 35h1" />
<path stroke="#d1ccbe" d="M25 15h1" />
<path stroke="#d0cdbe" d="M24 16h2" />
</svg>