<svg xmlns="http://www.w3.org/2000/svg" viewBox="0 -0.5 62 48" shape-rendering="crispEdges">
<metadata>Made with Pixels to Svg https://codepen.io/shshaw/pen/XbxvNj</metadata>
<path stroke="#0f0a0c" d="M4 0h54M3 1h1M58 1h1M2 2h1M59 2h1M1 3h1M60 3h1M0 4h1M61 4h1M0 5h1M61 5h1M0 6h1M61 6h1M0 7h1M61 7h1M0 8h1M61 8h1M0 9h1M61 9h1M0 10h1M61 10h1M0 11h1M61 11h1M0 12h1M61 12h1M0 13h1M61 13h1M0 14h1M61 14h1M0 15h1M61 15h1M0 16h1M61 16h1M0 17h1M61 17h1M0 18h1M61 18h1M0 19h1M61 19h1M0 20h1M61 20h1M0 21h1M61 21h1M0 22h1M61 22h1M0 23h1M61 23h1M0 24h1M61 24h1M0 25h1M61 25h1M0 26h1M61 26h1M0 27h1M61 27h1M0 28h1M61 28h1M0 29h1M61 29h1M0 30h1M61 30h1M0 31h1M61 31h1M0 32h1M61 32h1M0 33h1M61 33h1M0 34h1M61 34h1M0 35h1M61 35h1M0 36h1M61 36h1M0 37h1M61 37h1M0 38h1M61 38h1M0 39h1M61 39h1M0 40h1M61 40h1M0 41h1M61 41h1M0 42h1M61 42h1M0 43h1M61 43h1M1 44h1M60 44h1M2 45h1M59 45h1M3 46h1M58 46h1M4 47h54" />
<path stroke="#f5f4ee" d="M4 1h54M3 2h7M11 2h48M2 3h3M1 4h3M1 5h2M1 6h2M1 7h2M1 8h2M1 9h2M1 10h2M1 11h2M1 12h2M1 13h2M1 14h2M1 15h2M1 16h2M1 17h2M1 18h2M1 19h2M1 20h2M1 21h2M1 22h2M1 23h2M1 24h2M1 25h2M1 26h2M1 27h2M1 28h2M1 29h2M1 30h2M1 31h2M1 32h2M1 33h2M1 34h2M1 35h2M1 36h2M1 37h2M1 38h2M1 39h2M1 40h2M1 41h2M1 42h2M1 43h2M2 44h1" />
<path stroke="#f8f7f3" d="M10 2h1" />
<path stroke="#d1cdbe" d="M5 3h54M4 4h55M3 5h56M3 6h56M3 7h56M3 8h56M3 9h56M3 10h56M3 11h56M3 12h3M11 12h1M13 12h2M16 12h1M21 12h4M27 12h2M32 12h5M39 12h3M44 12h2M49 12h2M55 12h4M3 13h5M9 13h3M13 13h2M16 13h1M18 13h6M25 13h2M28 13h1M30 13h2M33 13h3M37 13h2M40 13h1M42 13h2M45 13h1M47 13h2M50 13h1M52 13h7M3 14h5M9 14h3M16 14h1M20 14h4M25 14h2M28 14h1M32 14h4M37 14h4M42 14h2M45 14h1M47 14h2M50 14h1M54 14h5M3 15h5M9 15h3M13 15h2M16 15h1M18 15h6M25 15h1M27 15h2M30 15h1M32 15h4M37 15h2M40 15h1M42 15h2M45 15h1M47 15h2M50 15h1M52 15h7M3 16h5M9 16h3M13 16h2M16 16h1M21 16h4M26 16h1M28 16h1M30 16h2M33 16h4M39 16h3M44 16h2M49 16h2M55 16h4M3 17h56M3 18h56M3 19h56M3 20h56M3 21h56M3 22h56M3 23h7M13 23h2M18 23h3M24 23h1M26 23h2M29 23h1M31 23h3M35 23h2M39 23h2M42 23h4M49 23h1M53 23h6M3 24h8M12 24h2M15 24h7M23 24h2M27 24h1M29 24h1M31 24h3M35 24h1M37 24h2M40 24h1M42 24h5M48 24h2M51 24h2M54 24h5M3 25h8M12 25h3M17 25h5M23 25h2M26 25h1M29 25h2M32 25h1M34 25h2M40 25h1M42 25h5M48 25h2M51 25h2M54 25h5M3 26h8M12 26h5M18 26h4M23 26h2M26 26h2M29 26h2M32 26h1M34 26h2M37 26h2M40 26h1M42 26h5M48 26h2M51 26h2M54 26h5M3 27h7M13 27h1M17 27h4M24 27h1M26 27h2M29 27h3M33 27h3M37 27h2M40 27h1M45 27h1M49 27h1M53 27h6M3 28h56M3 29h56M3 30h56M3 31h56M3 32h56M3 33h56M3 34h56M3 35h24M28 35h3M32 35h3M36 35h23M3 36h24M28 36h3M32 36h3M36 36h23M3 37h24M28 37h3M32 37h3M36 37h23M3 38h56M3 39h24M28 39h3M32 39h3M36 39h23M3 40h56M3 41h56M3 42h56M3 43h55M3 44h54" />
<path stroke="#9e9b90" d="M59 3h1M59 4h2M59 5h2M59 6h2M59 7h2M59 8h2M59 9h2M59 10h2M59 11h2M59 12h2M59 13h2M59 14h2M59 15h2M59 16h2M59 17h2M59 18h2M59 19h2M59 20h2M59 21h2M59 22h2M59 23h2M59 24h2M59 25h2M59 26h2M59 27h2M59 28h2M59 29h2M59 30h2M59 31h2M59 32h2M59 33h2M59 34h2M59 35h2M59 36h2M59 37h2M59 38h2M59 39h2M59 40h2M59 41h2M59 42h2M58 43h3M57 44h3M3 45h56M4 46h54" />
<path stroke="#ff0073" d="M6 12h5M12 12h1M15 12h1M17 12h4M25 12h2M29 12h3M37 12h2M42 12h2M46 12h3M51 12h4M8 13h1M12 13h1M15 13h1M17 13h1M24 13h1M27 13h1M29 13h1M32 13h1M36 13h1M39 13h1M41 13h1M44 13h1M46 13h1M49 13h1M51 13h1M8 14h1M12 14h4M17 14h3M24 14h1M27 14h1M29 14h3M36 14h1M41 14h1M44 14h1M46 14h1M49 14h1M51 14h3M8 15h1M12 15h1M15 15h1M17 15h1M24 15h1M26 15h1M29 15h1M31 15h1M36 15h1M39 15h1M41 15h1M44 15h1M46 15h1M49 15h1M51 15h1M8 16h1M12 16h1M15 16h1M17 16h4M25 16h1M27 16h1M29 16h1M32 16h1M37 16h2M42 16h2M46 16h3M51 16h4M10 23h3M15 23h3M21 23h3M25 23h1M28 23h1M30 23h1M34 23h1M37 23h2M41 23h1M46 23h3M50 23h3M11 24h1M14 24h1M22 24h1M25 24h2M28 24h1M30 24h1M34 24h1M36 24h1M39 24h1M41 24h1M47 24h1M50 24h1M53 24h1M11 25h1M15 25h2M22 25h1M25 25h1M27 25h2M31 25h1M33 25h1M36 25h4M41 25h1M47 25h1M50 25h1M53 25h1M11 26h1M17 26h1M22 26h1M25 26h1M28 26h1M31 26h1M33 26h1M36 26h1M39 26h1M41 26h1M47 26h1M50 26h1M53 26h1M10 27h3M14 27h3M21 27h3M25 27h1M28 27h1M32 27h1M36 27h1M39 27h1M41 27h4M46 27h3M50 27h3M27 35h1M31 35h1M35 35h1M27 36h1M31 36h1M35 36h1M27 37h1M31 37h1M35 37h1M27 39h1M31 39h1M35 39h1" />
</svg>