<svg xmlns="http://www.w3.org/2000/svg" viewBox="0 -0.5 14 14" shape-rendering="crispEdges">
<metadata>Made with Pixels to Svg https://codepen.io/shshaw/pen/XbxvNj</metadata>
<path stroke="#0f0a0c" d="M4 0h6M3 1h1M10 1h1M2 2h1M11 2h1M1 3h1M12 3h1M0 4h1M13 4h1M0 5h1M13 5h1M0 6h1M13 6h1M0 7h1M13 7h1M0 8h1M13 8h1M0 9h1M13 9h1M1 10h1M12 10h1M2 11h1M11 11h1M3 12h1M10 12h1M4 13h6" />
<path stroke="#ebc7d8" d="M4 1h6M3 2h1M2 3h1M1 4h1M1 5h1M1 6h1M1 7h1M1 8h1M1 9h1" />
<path stroke="#c45c8d" d="M4 2h7M3 3h9M2 4h5M8 4h4M2 5h3M6 5h1M8 5h1M10 5h2M2 6h2M5 6h2M8 6h2M11 6h1M2 7h2M5 7h5M11 7h1M2 8h2M5 8h5M11 8h1M2 9h3M10 9h2M2 10h9M3 11h7" />
<path stroke="#ffffff" d="M7 4h1M5 5h1M7 5h1M9 5h1M4 6h1M7 6h1M10 6h1M4 7h1M10 7h1M4 8h1M10 8h1M5 9h5" />
<path stroke="#894062" d="M12 4h1M12 5h1M12 6h1M12 7h1M12 8h1M12 9h1M11 10h1M10 11h1M4 12h6" />
</svg>