<svg xmlns="http://www.w3.org/2000/svg" viewBox="0 -0.5 100 74" shape-rendering="crispEdges">
<metadata>Made with Pixels to Svg https://codepen.io/shshaw/pen/XbxvNj</metadata>
<path stroke="#0f0a0c" d="M4 0h92M3 1h1M96 1h1M2 2h1M97 2h1M1 3h1M98 3h1M0 4h1M99 4h1M0 5h1M99 5h1M0 6h1M99 6h1M0 7h1M99 7h1M0 8h1M99 8h1M0 9h1M99 9h1M0 10h1M99 10h1M0 11h1M99 11h1M0 12h1M99 12h1M0 13h1M99 13h1M0 14h1M99 14h1M0 15h1M99 15h1M0 16h1M99 16h1M0 17h1M99 17h1M0 18h1M99 18h1M0 19h1M99 19h1M0 20h1M99 20h1M0 21h1M99 21h1M0 22h1M99 22h1M0 23h1M99 23h1M0 24h1M99 24h1M0 25h1M99 25h1M0 26h1M99 26h1M0 27h1M99 27h1M0 28h1M99 28h1M0 29h1M99 29h1M0 30h1M99 30h1M0 31h1M99 31h1M0 32h1M99 32h1M0 33h1M99 33h1M0 34h1M99 34h1M0 35h1M99 35h1M0 36h1M99 36h1M0 37h1M99 37h1M0 38h1M99 38h1M0 39h1M99 39h1M0 40h1M99 40h1M0 41h1M99 41h1M0 42h1M99 42h1M0 43h1M99 43h1M0 44h1M99 44h1M0 45h1M99 45h1M0 46h1M99 46h1M0 47h1M99 47h1M0 48h1M99 48h1M0 49h1M99 49h1M0 50h1M99 50h1M0 51h1M99 51h1M0 52h1M99 52h1M0 53h1M99 53h1M0 54h1M99 54h1M0 55h1M99 55h1M0 56h1M99 56h1M0 57h1M99 57h1M0 58h1M99 58h1M0 59h1M99 59h1M0 60h1M99 60h1M0 61h1M99 61h1M0 62h1M99 62h1M0 63h1M99 63h1M0 64h1M99 64h1M0 65h1M99 65h1M0 66h1M99 66h1M0 67h1M99 67h1M0 68h1M99 68h1M0 69h1M99 69h1M1 70h1M98 70h1M2 71h1M97 71h1M3 72h1M96 72h1M4 73h92" />
<path stroke="#f5f4ee" d="M4 1h26M68 1h28M3 2h7M11 2h17M76 2h21M2 3h3M1 4h3M1 5h2M1 6h2M1 7h2M1 8h2M1 9h2M1 10h2M1 11h2M1 12h2M1 13h2M1 14h2M1 15h2M1 16h2M1 17h2M1 18h2M1 19h2M1 20h2M1 21h2M1 22h2M2 53h1M2 54h1M1 55h2M1 56h2M1 57h2M1 58h2M1 59h2M1 60h2M1 61h2M1 62h2M1 63h2M1 64h2M1 65h2M1 66h2M1 67h2M1 68h2M1 69h2M2 70h1" />
<path stroke="#ffffff" d="M30 1h38M28 2h48M1 23h2M1 24h2M1 25h2M1 26h2M1 27h2M1 28h2M1 29h2M1 30h2M1 31h2M1 32h2M1 33h2M1 34h2M1 35h2M1 36h2M1 37h2M1 38h2M1 39h2M1 40h2M1 41h2M1 42h2M1 43h2M1 44h2M1 45h2M1 46h2M1 47h2M1 48h2M1 49h2M1 50h2M1 51h2M1 52h2M1 53h1M1 54h1" />
<path stroke="#f8f7f3" d="M10 2h1" />
<path stroke="#d1cdbe" d="M5 3h92M4 4h93M3 5h94M3 6h94M3 7h94M3 8h94M3 9h94M3 10h94M3 11h94M3 12h94M3 13h94M3 14h94M3 15h94M3 16h94M3 17h94M3 18h94M3 19h94M3 20h94M3 21h94M3 22h94M3 23h94M3 24h94M3 25h94M3 26h94M3 27h94M3 28h94M3 29h94M3 30h94M3 31h94M3 32h94M3 33h94M3 34h94M3 35h94M3 36h94M3 37h94M3 38h94M3 39h94M3 40h94M3 41h94M3 42h94M3 43h94M3 44h94M3 45h94M3 46h94M3 47h94M3 48h94M3 49h94M3 50h94M3 51h94M3 52h94M3 53h94M3 54h94M3 55h94M3 56h94M3 57h94M3 58h94M3 59h94M3 60h94M3 61h94M3 62h94M3 63h94M3 64h94M3 65h94M3 66h94M3 67h94M3 68h94M3 69h93M3 70h92" />
<path stroke="#9e9b90" d="M97 3h1M97 4h2M97 5h2M97 6h2M97 7h2M97 8h2M97 9h2M97 10h2M97 11h2M97 12h2M97 13h2M97 14h2M97 15h2M97 16h2M97 17h2M97 18h2M97 19h2M97 20h2M97 21h2M97 22h2M97 23h2M97 24h2M97 25h2M97 26h2M97 27h2M97 28h2M97 29h2M97 30h2M97 31h2M97 32h2M97 33h2M97 34h2M97 35h2M97 36h2M97 37h2M97 38h2M97 39h2M97 40h2M97 41h2M97 42h2M97 43h2M97 44h2M97 45h2M97 46h2M97 47h2M97 48h2M97 49h2M97 50h2M97 51h2M97 52h2M97 53h2M97 54h2M97 55h2M97 56h2M97 57h2M97 58h2M97 59h2M97 60h2M97 61h2M97 62h2M97 63h2M97 64h2M97 65h2M97 66h2M97 67h2M97 68h2M96 69h3M95 70h3M3 71h94M4 72h92" />
</svg>