<svg xmlns="http://www.w3.org/2000/svg" viewBox="0 -0.5 14 14" shape-rendering="crispEdges">
<metadata>Made with Pixels to Svg https://codepen.io/shshaw/pen/XbxvNj</metadata>
<path stroke="#0f0a0c" d="M4 0h6M3 1h1M10 1h1M2 2h1M11 2h1M1 3h1M5 3h3M12 3h1M0 4h1M4 4h1M8 4h1M13 4h1M0 5h1M8 5h1M13 5h1M0 6h1M7 6h1M13 6h1M0 7h1M6 7h1M13 7h1M0 8h1M6 8h1M13 8h1M0 9h1M13 9h1M1 10h1M6 10h1M12 10h1M2 11h1M11 11h1M3 12h1M10 12h1M4 13h6" />
<path stroke="#f5f4ee" d="M4 1h6M3 2h1M2 3h1M4 3h1M8 3h1M1 4h1M1 5h1M1 6h1M1 7h1M1 8h1M1 9h1" />
<path stroke="#d1cdbe" d="M4 2h6M3 3h1M9 3h2M2 4h2M5 4h3M10 4h2M2 5h6M10 5h2M2 6h5M9 6h3M2 7h4M8 7h4M2 8h4M8 8h4M2 9h10M2 10h4M8 10h3M3 11h7" />
<path stroke="#9e9b90" d="M10 2h1M11 3h1M9 4h1M12 4h1M9 5h1M12 5h1M8 6h1M12 6h1M7 7h1M12 7h1M7 8h1M12 8h1M12 9h1M7 10h1M11 10h1M10 11h1M4 12h6" />
</svg>