<svg xmlns="http://www.w3.org/2000/svg" viewBox="0 -0.5 47 59" shape-rendering="crispEdges">
<metadata>Made with Pixels to Svg https://codepen.io/shshaw/pen/XbxvNj</metadata>
<path stroke="#000000" d="M12 0h5M32 0h7M11 1h1M17 1h1M31 1h1M38 1h2M10 2h1M18 2h2M30 2h1M39 2h2M9 3h1M20 3h3M29 3h1M40 3h1M8 4h1M23 4h1M29 4h1M38 4h2M9 5h3M19 5h4M24 5h1M28 5h1M31 5h2M36 5h2M12 6h7M23 6h1M25 6h3M29 6h1M33 6h3M24 7h1M28 7h1M24 8h1M27 8h1M12 9h3M24 9h1M26 9h1M11 10h1M15 10h1M24 10h1M26 10h1M10 11h1M16 11h1M24 11h1M26 11h1M10 12h1M17 12h1M24 12h1M26 12h1M10 13h1M17 13h1M24 13h1M26 13h1M37 13h1M11 14h1M17 14h1M24 14h1M26 14h1M36 14h1M11 15h1M16 15h1M24 15h1M26 15h1M34 15h2M37 15h1M12 16h1M16 16h1M24 16h1M26 16h1M32 16h2M36 16h1M12 17h1M15 17h1M24 17h1M26 17h1M31 17h1M34 17h2M13 18h1M15 18h1M24 18h1M26 18h1M30 18h1M32 18h2M35 18h1M9 19h4M15 19h1M24 19h1M26 19h1M29 19h1M31 19h1M34 19h1M36 19h1M16 20h2M24 20h1M26 20h1M28 20h1M30 20h1M34 20h5M10 21h5M18 21h2M24 21h1M26 21h2M29 21h1M34 21h1M39 21h1M15 22h1M17 22h1M20 22h2M24 22h1M28 22h1M33 22h1M40 22h1M12 23h3M18 23h2M22 23h1M24 23h1M27 23h1M33 23h1M40 23h1M11 24h1M16 24h1M20 24h1M23 24h2M27 24h1M33 24h1M40 24h1M10 25h1M16 25h1M21 25h1M24 25h1M27 25h1M34 25h1M41 25h1M10 26h1M16 26h1M22 26h1M27 26h1M35 26h1M41 26h1M9 27h1M15 27h1M23 27h2M27 27h1M36 27h1M40 27h1M9 28h1M15 28h1M24 28h1M27 28h1M37 28h1M40 28h1M9 29h1M14 29h1M24 29h1M27 29h1M38 29h2M9 30h1M13 30h1M24 30h1M27 30h1M10 31h3M24 31h1M27 31h1M24 32h1M27 32h1M24 33h1M27 33h1M24 34h1M27 34h1M24 35h1M27 35h1M24 36h1M27 36h1M24 37h1M27 37h1M24 38h1M27 38h1M24 39h1M27 39h1M24 40h1M27 40h1M24 41h1M27 41h1M24 42h1M24 43h1M27 43h1M24 44h1M24 45h1M24 46h1M24 47h1M24 48h1M24 49h1M24 50h2" />
<path stroke="#9ff29b" d="M12 1h5M32 1h6M11 2h1M17 2h1M31 2h1M38 2h1M10 3h1M30 3h1M39 3h1M9 4h1M12 10h1M11 11h1M41 11h2M11 12h1M39 12h2M43 12h2M38 13h1M45 13h1M3 17h2M1 18h2M5 18h2M39 22h1M39 23h1M12 24h2M39 24h1M11 25h2M40 25h1M11 26h1M40 26h1M10 27h1M39 27h1M10 28h1M39 28h1" />
<path stroke="#408c3b" d="M12 2h5M32 2h2M37 2h1M14 3h6M34 3h5M12 4h2M17 4h3M30 4h1M33 4h3M29 5h1M13 10h2M12 11h4M12 12h1M14 12h2M41 12h2M11 13h2M14 13h2M39 13h2M44 13h1M13 14h1M15 14h1M41 14h5M13 15h1M39 15h4M3 18h2M1 19h2M5 19h3M3 20h2M37 21h2M36 22h1M38 22h1M36 23h1M38 23h1M14 24h2M36 24h1M38 24h1M13 25h2M36 25h2M39 25h1M12 26h1M14 26h1M37 26h1M39 26h1M11 27h1M13 27h1M38 27h1M11 28h3M38 28h1M10 29h3M10 30h1" />
<path stroke="#144511" d="M34 2h3M11 3h3M31 3h3M14 4h3M13 12h1M13 13h1M41 13h3M14 14h1M38 14h3M14 15h1M3 19h2M8 19h1M5 20h2M37 22h1M37 23h1M37 24h1M38 25h1M13 26h1M38 26h1M12 27h1" />
<path stroke="#315c2e" d="M10 4h2M31 4h2M36 4h2M12 5h7M30 5h1M33 5h3M16 12h1M16 13h1M12 14h1M16 14h1M12 15h1M15 15h1M38 15h1M43 15h2M13 16h3M39 16h4M13 17h2M40 17h2M14 18h1M2 20h1M7 20h2M3 21h5M35 21h2M34 22h2M34 23h2M34 24h2M15 25h1M35 25h1M15 26h1M36 26h1M14 27h1M37 27h1M14 28h1M13 29h1M11 30h2" />
<path stroke="#85623d" d="M20 4h3M23 5h1M24 6h1M28 6h1M25 7h3M25 8h2M25 9h1M25 10h1M25 11h1M25 12h1M25 13h1M25 14h1M37 14h1M25 15h1M36 15h1M25 16h1M34 16h2M25 17h1M32 17h2M25 18h1M31 18h1M34 18h1M13 19h2M25 19h1M30 19h1M35 19h1M9 20h7M25 20h1M29 20h1M15 21h3M25 21h1M28 21h1M16 22h1M18 22h2M25 22h3M15 23h2M20 23h2M25 23h2M21 24h2M25 24h2M22 25h2M25 25h2M23 26h4M25 27h2M25 28h2M25 29h2M25 30h2M25 31h2M25 32h2M25 33h2M25 34h2M25 35h2M25 36h2" />
<path stroke="#0f0a0c" d="M41 10h2M39 11h2M43 11h2M38 12h1M45 12h1M46 13h1M46 14h1M45 15h1M3 16h2M38 16h1M43 16h2M1 17h2M5 17h2M39 17h1M42 17h1M0 18h1M7 18h2M40 18h2M0 19h1M1 20h1M2 21h1M8 21h2M3 22h5M27 42h1M27 44h1M27 45h1M27 46h1M27 47h1M27 48h1M27 49h1M20 50h4M29 50h6M19 51h1M27 51h2M35 51h1M18 52h1M31 52h2M36 52h1M17 53h1M21 53h2M30 53h1M36 53h1M17 54h1M20 54h1M23 54h1M36 54h1M17 55h1M31 55h5M17 56h2M29 56h2M19 57h5M28 57h1M24 58h4" />
<path stroke="#3d2309" d="M25 37h2M25 38h2M25 39h2M25 40h2M25 41h2M25 42h2M25 43h2M25 44h2M25 45h2M25 46h2M25 47h2M25 48h2M25 49h2M26 50h2M26 51h1" />
<path stroke="#f5d1bc" d="M20 51h4M19 52h1M18 53h1" />
<path stroke="#eba075" d="M24 51h1M33 51h2M20 52h6M28 52h3M33 52h2M19 53h2M23 53h7M31 53h4M18 54h2M21 54h2M24 54h6M18 55h11M19 56h1M24 56h4" />
<path stroke="#a46f51" d="M25 51h1M29 51h4M26 52h2M35 52h1M35 53h1M30 54h6M29 55h2M20 56h4M28 56h1M24 57h4" />
</svg>