<svg xmlns="http://www.w3.org/2000/svg" viewBox="0 -0.5 29 33" shape-rendering="crispEdges">
<metadata>Made with Pixels to Svg https://codepen.io/shshaw/pen/XbxvNj</metadata>
<path stroke="#0f0a0c" d="M3 1h2M23 1h2M1 2h2M5 2h2M21 2h2M25 2h2M0 3h1M7 3h2M20 3h1M27 3h1M0 4h1M9 4h1M1 5h1M19 5h1M2 6h1M8 6h2M19 6h1M27 6h1M3 7h5M9 7h1M19 7h2M25 7h2M21 8h1M24 8h1M15 9h1M22 9h2M15 11h1M12 14h1M12 15h1M12 16h1M14 16h1M12 17h1M12 18h1M14 18h1M12 19h1M14 19h1M12 20h1M14 20h1M12 21h1M14 21h1M12 22h1M14 22h1M12 23h1M14 23h1M7 24h5M16 24h6M6 25h1M14 25h2M22 25h1M5 26h1M18 26h2M23 26h1M4 27h1M8 27h2M17 27h1M23 27h1M4 28h1M7 28h1M10 28h1M23 28h1M4 29h1M18 29h5M4 30h2M16 30h2M6 31h5M15 31h1M11 32h4" />
<path stroke="#9ff29b" d="M3 2h2M23 2h2M1 3h2M5 3h2M21 3h2M25 3h2M20 4h1M27 4h1" />
<path stroke="#000000" d="M20 2h1M12 3h2M19 3h1M12 4h1M14 4h1M19 4h1M28 4h1M10 5h1M12 5h1M14 5h1M28 5h1M11 6h2M14 6h1M18 6h1M10 7h1M14 7h1M17 7h1M11 8h2M14 8h1M16 8h1M18 8h1M12 9h1M14 9h1M17 9h1M12 10h1M16 10h1M12 11h1M12 12h1M14 12h1M12 13h1M14 13h1M14 14h1M14 15h1M14 17h1" />
<path stroke="#408c3b" d="M3 3h2M23 3h2M1 4h2M5 4h3M21 4h2M26 4h1M3 5h2M23 5h5M21 6h4M22 7h2" />
<path stroke="#144511" d="M3 4h2M8 4h1M23 4h3M5 5h2M20 5h3" />
<path stroke="#85623d" d="M13 4h1M9 5h1M13 5h1M10 6h1M13 6h1M11 7h3M18 7h1M13 8h1M17 8h1M13 9h1M16 9h1M13 10h3M13 11h2M13 12h1M13 13h1M13 14h1M13 15h1M13 16h1M13 17h1M13 18h1M13 19h1M13 20h1" />
<path stroke="#315c2e" d="M2 5h1M7 5h2M3 6h5M20 6h1M25 6h2M21 7h1M24 7h1M22 8h2" />
<path stroke="#3d2309" d="M13 21h1M13 22h1M13 23h1M12 24h3M13 25h1" />
<path stroke="#f5d1bc" d="M7 25h4M6 26h1M5 27h1" />
<path stroke="#eba075" d="M11 25h1M20 25h2M7 26h6M15 26h3M20 26h2M6 27h2M10 27h7M18 27h4M5 28h2M8 28h2M11 28h6M5 29h11M6 30h1M11 30h4" />
<path stroke="#a46f51" d="M12 25h1M16 25h4M13 26h2M22 26h1M22 27h1M17 28h6M16 29h2M7 30h4M15 30h1M11 31h4" />
</svg>