<svg xmlns="http://www.w3.org/2000/svg" viewBox="0 -0.5 110 129" shape-rendering="crispEdges">
<metadata>Made with Pixels to Svg https://codepen.io/shshaw/pen/XbxvNj</metadata>
<path stroke="#0f0a0c" d="M80 4h2M78 5h2M82 5h1M41 6h2M77 6h1M84 6h1M39 7h2M43 7h2M85 7h1M38 8h1M45 8h1M85 8h1M84 9h1M77 10h1M82 10h2M78 11h1M81 11h1M40 12h1M45 12h1M79 12h2M41 13h1M44 13h1M68 13h1M71 13h1M25 14h2M42 14h2M54 14h1M67 14h1M23 15h2M27 15h2M55 15h1M66 15h1M29 16h2M56 16h1M56 17h1M23 18h1M56 18h1M24 19h1M30 19h2M57 19h1M9 20h2M25 20h5M57 20h1M84 20h1M7 21h2M11 21h2M57 21h1M6 22h1M13 22h1M58 22h1M5 23h1M58 23h1M5 24h1M58 24h1M69 24h1M6 25h1M58 25h2M93 25h2M7 26h2M13 26h1M63 26h1M91 26h2M95 26h2M9 27h1M12 27h1M89 27h2M10 28h2M46 28h1M61 29h1M96 29h1M19 30h2M24 30h1M88 30h2M95 30h1M18 31h1M25 31h1M59 31h1M90 31h5M21 32h1M59 32h1M64 32h1M74 32h1M21 33h1M39 33h2M64 33h1M72 33h2M21 34h2M37 34h2M41 34h2M64 34h1M19 35h2M22 35h1M25 35h1M36 35h1M43 35h1M79 35h1M21 36h1M23 36h2M35 36h1M71 36h2M78 36h1M22 37h2M35 37h1M56 37h1M60 37h1M73 37h5M23 38h1M26 38h1M36 38h1M62 38h1M64 38h1M23 39h2M33 39h1M35 39h1M37 39h2M43 39h1M61 39h1M33 40h1M36 40h1M39 40h1M42 40h1M60 40h1M83 40h2M103 40h2M34 41h1M36 41h1M40 41h2M59 41h1M81 41h2M85 41h2M101 41h2M105 41h2M34 42h1M37 42h1M59 42h1M80 42h1M87 42h1M99 42h2M35 43h1M37 43h1M53 43h1M88 43h1M30 44h1M35 44h1M37 44h1M51 44h1M88 44h1M106 44h1M36 45h1M38 45h1M51 45h1M54 45h1M87 45h1M98 45h2M105 45h1M5 46h2M36 46h1M38 46h1M51 46h1M54 46h1M80 46h1M85 46h1M100 46h5M3 47h2M7 47h2M52 47h1M55 47h1M80 47h2M84 47h1M9 48h2M52 48h1M55 48h1M78 48h3M82 48h2M53 49h1M74 49h2M85 49h1M3 50h1M82 50h3M4 51h1M10 51h2M38 51h1M69 51h1M71 51h1M82 51h1M5 52h5M68 52h1M25 53h1M39 53h1M67 53h1M70 53h1M74 53h1M26 54h4M31 54h2M40 54h1M66 54h1M69 54h1M23 55h1M33 55h5M41 55h1M65 55h1M68 55h1M37 56h5M67 56h1M67 57h1M41 58h3M66 58h1M44 59h1M66 59h1M66 60h1M65 61h1M65 62h1M64 63h1M64 64h1M63 65h1M53 67h1M62 67h1M53 68h1M53 69h1M53 70h1M53 71h1M53 72h1M53 73h1M53 74h1M53 75h1M53 76h1M53 77h1M53 78h1M53 79h1M53 80h1M53 81h1M53 82h1M53 83h1M61 83h1M53 84h1M61 84h1M53 85h1M61 85h1M53 86h1M61 86h1M53 87h1M61 87h1M61 88h1M61 89h1M61 90h1M61 91h1M61 92h1M61 93h1M61 94h1M61 95h1M61 96h1M61 97h1M61 98h1M61 99h1M61 100h1M61 101h1M61 102h1M61 103h1M61 104h1M61 105h1M61 106h1M61 107h1M61 108h1M61 109h1M61 110h1M61 111h1M61 112h1M61 113h1M61 114h1M61 115h1M61 116h1M61 117h1M61 118h1M61 119h1M51 120h2M59 120h4M56 121h2M60 122h2M46 123h1M50 123h2M59 123h1M49 124h1M52 124h1" />
<path stroke="#9ff29b" d="M80 5h2M78 6h2M82 6h2M41 7h2M77 7h1M84 7h1M34 8h1M39 8h2M43 8h2M33 9h1M45 9h1M33 10h1M25 15h2M23 16h2M27 16h2M78 16h1M78 17h1M44 18h1M78 18h1M44 19h1M79 19h1M85 19h1M44 20h1M79 20h1M86 20h1M9 21h2M78 21h1M86 21h1M7 22h2M11 22h2M34 22h2M78 22h1M6 23h1M13 23h1M33 23h2M33 24h1M32 25h1M68 25h1M32 26h1M69 26h1M93 26h2M69 27h1M91 27h2M95 27h2M19 31h2M24 31h1M12 32h1M25 32h1M12 33h1M78 33h2M84 33h2M12 34h1M39 34h2M85 34h2M95 34h1M11 35h1M37 35h2M41 35h2M86 35h1M96 35h1M11 36h1M36 36h1M43 36h1M87 36h1M96 36h1M12 37h1M87 37h1M12 38h1M67 39h2M14 40h1M68 40h2M13 41h1M24 41h1M69 41h1M83 41h2M103 41h2M13 42h1M24 42h1M70 42h1M81 42h2M85 42h2M101 42h2M105 42h2M24 43h1M70 43h1M80 43h1M87 43h1M23 44h1M23 45h1M42 45h1M24 46h1M42 46h1M5 47h2M24 47h1M42 47h1M3 48h2M7 48h2M41 48h1M94 48h2M41 49h1M95 49h2M42 50h1M96 50h1M42 51h1M97 51h1M81 52h1M97 52h1M81 53h1M14 54h2M81 54h1M13 55h2M82 55h1M13 56h1M82 56h1M12 57h1M81 57h1M12 58h1M81 58h1" />
<path stroke="#408c3b" d="M80 6h2M78 7h2M83 7h1M35 8h2M41 8h2M80 8h5M34 9h4M39 9h1M43 9h2M78 9h4M34 10h1M36 10h2M40 10h3M33 11h2M36 11h2M41 11h4M35 12h1M37 12h1M35 13h1M76 15h2M25 16h2M75 16h1M77 16h1M24 17h1M27 17h3M45 17h2M75 17h1M77 17h1M25 18h2M45 18h1M47 18h1M75 18h1M77 18h1M45 19h1M47 19h1M75 19h2M78 19h1M83 19h2M45 20h1M47 20h1M76 20h1M78 20h1M82 20h2M85 20h1M46 21h2M77 21h1M82 21h2M85 21h1M9 22h2M36 22h2M46 22h1M77 22h1M82 22h2M85 22h2M7 23h1M11 23h2M35 23h2M82 23h1M84 23h1M6 24h5M34 24h1M36 24h1M84 24h1M9 25h4M33 25h1M35 25h1M66 25h2M33 26h3M65 26h4M32 27h3M65 27h2M68 27h1M93 27h2M32 28h1M65 28h2M68 28h2M90 28h3M95 28h2M65 29h1M67 29h1M93 29h2M67 30h1M13 31h2M21 31h1M13 32h1M15 32h1M19 32h1M24 32h1M13 33h1M15 33h1M19 33h2M22 33h1M82 33h2M13 34h1M15 34h1M23 34h2M78 34h2M83 34h2M93 34h2M12 35h1M14 35h2M39 35h2M76 35h2M83 35h1M85 35h1M92 35h4M12 36h1M14 36h1M37 36h1M41 36h2M84 36h1M86 36h1M92 36h2M95 36h1M13 37h1M36 37h5M84 37h3M92 37h2M95 37h2M13 38h1M39 38h4M85 38h3M92 38h1M94 38h1M65 39h2M87 39h1M94 39h1M15 40h2M25 40h2M66 40h2M14 41h4M25 41h1M27 41h1M66 41h1M68 41h1M14 42h1M16 42h2M25 42h1M27 42h1M67 42h1M69 42h1M83 42h2M103 42h2M13 43h2M16 43h2M25 43h1M27 43h1M67 43h3M81 43h2M86 43h1M100 43h3M105 43h2M15 44h1M17 44h1M24 44h1M26 44h2M43 44h2M68 44h3M83 44h5M103 44h2M15 45h1M24 45h1M26 45h1M43 45h1M45 45h1M70 45h1M81 45h4M25 46h1M43 46h1M45 46h1M25 47h1M43 47h1M45 47h1M5 48h2M42 48h1M44 48h2M92 48h2M4 49h1M7 49h3M42 49h1M44 49h1M93 49h2M5 50h2M43 50h1M93 50h1M95 50h1M43 51h1M79 51h2M94 51h1M96 51h1M78 52h1M80 52h1M94 52h3M78 53h1M80 53h1M95 53h3M16 54h2M78 54h1M80 54h1M97 54h1M15 55h2M78 55h2M81 55h1M14 56h1M16 56h1M79 56h1M81 56h1M13 57h1M15 57h1M80 57h1M13 58h3M80 58h1M12 59h3M12 60h1" />
<path stroke="#000000" d="M34 7h3M76 7h1M33 8h1M37 8h1M75 8h1M32 9h1M38 9h1M46 9h1M73 9h2M76 9h1M32 10h1M39 10h1M47 10h1M71 10h2M75 10h1M32 11h1M39 11h1M46 11h1M48 11h2M70 11h1M73 11h2M33 12h1M39 12h1M47 12h1M50 12h2M69 12h1M71 12h2M74 12h1M33 13h1M38 13h1M48 13h1M52 13h1M73 13h1M75 13h1M34 14h1M38 14h1M48 14h1M50 14h2M53 14h1M70 14h1M73 14h5M34 15h1M37 15h1M47 15h1M49 15h1M52 15h1M68 15h1M73 15h1M78 15h1M22 16h1M35 16h1M37 16h1M45 16h5M53 16h1M66 16h1M72 16h1M79 16h1M23 17h1M31 17h4M37 17h1M44 17h1M49 17h1M54 17h1M65 17h1M67 17h1M72 17h1M79 17h1M38 18h2M43 18h1M50 18h1M54 18h1M64 18h1M67 18h1M72 18h1M79 18h1M83 18h3M32 19h5M40 19h2M43 19h1M50 19h1M54 19h1M64 19h1M66 19h1M73 19h1M80 19h1M82 19h1M86 19h1M37 20h1M39 20h1M42 20h2M50 20h1M55 20h1M63 20h1M65 20h1M74 20h1M80 20h2M87 20h1M34 21h3M40 21h2M44 21h1M49 21h1M55 21h1M62 21h1M65 21h1M75 21h1M79 21h2M87 21h1M33 22h1M38 22h1M42 22h1M45 22h1M48 22h1M55 22h1M62 22h1M64 22h1M76 22h1M79 22h2M87 22h1M14 23h1M32 23h1M38 23h1M43 23h1M47 23h1M56 23h1M61 23h1M63 23h1M77 23h2M80 23h1M86 23h1M15 24h1M32 24h1M38 24h1M43 24h1M46 24h1M56 24h1M60 24h1M62 24h1M66 24h3M81 24h1M86 24h1M14 25h1M16 25h2M31 25h1M37 25h1M44 25h1M46 25h1M56 25h1M62 25h1M65 25h1M69 25h1M81 25h1M85 25h1M15 26h1M18 26h2M31 26h1M37 26h1M47 26h1M56 26h1M61 26h1M64 26h1M70 26h1M82 26h1M85 26h1M16 27h2M20 27h1M31 27h1M36 27h1M47 27h2M56 27h1M63 27h1M70 27h1M82 27h1M84 27h1M97 27h1M16 28h1M18 28h2M21 28h1M31 28h1M35 28h1M48 28h1M56 28h1M60 28h1M63 28h1M70 28h1M82 28h1M85 28h4M97 28h1M15 29h1M17 29h1M20 29h1M22 29h1M32 29h3M47 29h1M49 29h3M56 29h1M60 29h1M63 29h1M69 29h1M80 29h2M13 30h5M21 30h1M23 30h1M47 30h1M51 30h1M56 30h1M60 30h1M64 30h1M69 30h1M78 30h2M83 30h5M12 31h1M17 31h1M22 31h1M48 31h2M56 31h1M64 31h1M68 31h1M76 31h2M80 31h1M82 31h1M11 32h1M18 32h1M23 32h1M26 32h1M50 32h2M53 32h1M56 32h1M65 32h1M68 32h1M75 32h1M78 32h2M83 32h3M11 33h1M18 33h1M27 33h1M51 33h1M54 33h1M56 33h1M59 33h1M65 33h1M67 33h1M74 33h1M77 33h1M81 33h1M86 33h1M93 33h3M11 34h1M18 34h1M26 34h1M28 34h2M52 34h1M55 34h2M59 34h1M65 34h1M68 34h4M76 34h1M81 34h1M87 34h1M92 34h1M96 34h1M10 35h1M17 35h1M27 35h1M30 35h2M52 35h2M55 35h2M59 35h1M63 35h2M75 35h1M81 35h1M87 35h1M91 35h1M97 35h1M10 36h1M16 36h1M29 36h1M32 36h1M44 36h1M53 36h2M56 36h1M59 36h1M61 36h2M66 36h5M74 36h1M82 36h1M88 36h1M90 36h1M97 36h1M11 37h1M15 37h1M28 37h1M30 37h2M33 37h1M45 37h1M54 37h2M59 37h1M63 37h1M65 37h1M82 37h1M88 37h1M90 37h1M97 37h1M11 38h1M14 38h1M27 38h1M29 38h1M32 38h1M34 38h1M44 38h1M46 38h2M55 38h1M66 38h3M83 38h1M88 38h1M90 38h1M96 38h1M12 39h5M25 39h5M45 39h1M48 39h2M56 39h1M64 39h1M69 39h1M84 39h1M88 39h1M91 39h1M96 39h1M13 40h1M17 40h1M24 40h1M29 40h1M46 40h2M50 40h1M56 40h1M64 40h1M70 40h1M85 40h3M91 40h1M95 40h1M12 41h1M18 41h1M23 41h1M30 41h1M46 41h1M48 41h2M51 41h1M56 41h1M64 41h1M70 41h1M92 41h1M95 41h1M12 42h1M19 42h1M23 42h1M30 42h1M45 42h1M47 42h1M50 42h1M52 42h1M56 42h1M65 42h1M71 42h1M92 42h1M94 42h1M107 42h1M12 43h1M19 43h1M23 43h1M30 43h1M43 43h5M51 43h1M56 43h1M59 43h1M65 43h1M71 43h1M79 43h1M92 43h1M95 43h4M107 43h1M13 44h1M19 44h1M22 44h1M29 44h1M42 44h1M47 44h1M53 44h1M56 44h1M59 44h1M66 44h1M71 44h1M78 44h1M90 44h2M13 45h1M18 45h1M22 45h1M28 45h1M41 45h1M48 45h1M56 45h1M59 45h1M67 45h1M71 45h1M76 45h2M79 45h1M88 45h2M93 45h5M14 46h1M18 46h1M23 46h1M27 46h1M41 46h1M48 46h1M56 46h1M59 46h1M68 46h3M74 46h2M78 46h1M86 46h2M90 46h1M92 46h1M14 47h1M17 47h1M23 47h1M26 47h1M38 47h1M41 47h1M48 47h1M56 47h1M59 47h1M73 47h1M76 47h2M85 47h1M88 47h2M93 47h3M2 48h1M15 48h1M17 48h1M24 48h2M39 48h2M47 48h1M56 48h1M59 48h1M72 48h1M77 48h1M87 48h1M91 48h1M96 48h1M2 49h2M11 49h4M17 49h1M39 49h2M46 49h1M56 49h1M59 49h1M71 49h1M73 49h1M86 49h1M91 49h1M97 49h1M18 50h2M40 50h2M45 50h1M53 50h1M59 50h1M72 50h1M76 50h5M91 50h1M97 50h1M12 51h5M20 51h2M40 51h2M44 51h1M53 51h1M59 51h1M76 51h1M81 51h1M92 51h1M98 51h1M17 52h1M19 52h1M22 52h2M42 52h2M54 52h1M59 52h1M75 52h1M82 52h1M92 52h1M98 52h1M14 53h3M20 53h2M24 53h1M41 53h1M54 53h1M59 53h1M75 53h1M82 53h1M93 53h1M98 53h1M13 54h1M18 54h1M22 54h1M42 54h1M54 54h1M59 54h1M75 54h1M82 54h1M94 54h1M98 54h1M12 55h1M18 55h1M24 55h2M43 55h1M54 55h1M59 55h1M76 55h1M83 55h1M95 55h3M12 56h1M18 56h1M26 56h7M44 56h1M54 56h1M59 56h1M64 56h1M77 56h1M83 56h1M11 57h1M17 57h1M32 57h5M45 57h1M54 57h1M59 57h1M64 57h1M78 57h1M82 57h1M11 58h1M17 58h1M37 58h4M46 58h2M54 58h1M59 58h1M63 58h1M79 58h1M82 58h1M11 59h1M16 59h1M48 59h2M54 59h1M59 59h1M62 59h1M80 59h2M11 60h1M15 60h1M45 60h2M50 60h1M54 60h1M59 60h1M61 60h1M12 61h3M47 61h2M51 61h2M54 61h1M59 61h1M61 61h1M49 62h2M53 62h2M59 62h2M51 63h1M53 63h2M59 63h1M52 64h1M54 64h1M59 64h1M52 65h1M53 66h1M63 66h1M62 68h1M61 69h1M61 70h1M61 71h1M61 72h1M61 73h1M61 74h1M61 75h1M61 76h1M61 77h1M61 78h1M61 79h1M61 80h1M61 81h1M61 82h1M53 88h1M53 89h1M53 90h1M53 91h1M53 92h1M53 93h1M53 94h1M53 95h1M53 96h1M53 97h1M53 98h1M53 99h1M53 100h1M53 101h1M53 102h1M53 103h1M53 104h1M53 105h1M53 106h1M53 107h1M53 108h1M53 109h1M53 110h1M53 111h1M53 112h1M53 113h1M53 114h1M53 115h1M53 116h1M53 117h1M53 118h1M53 119h1M49 120h2M53 120h2M63 120h6M47 121h3M69 121h2M45 122h3M71 122h1M40 123h6M72 123h3M39 124h2M75 124h1M38 125h1M75 125h1M37 126h1M73 126h2M37 127h7M60 127h13M44 128h16" />
<path stroke="#144511" d="M80 7h3M77 8h3M40 9h3M35 10h1M43 10h3M35 11h1M36 12h1M36 13h1M76 16h1M25 17h2M30 17h1M76 17h1M27 18h2M46 18h1M76 18h1M46 19h1M77 19h1M46 20h1M77 20h1M45 21h1M84 21h1M84 22h1M8 23h3M83 23h1M11 24h3M35 24h1M83 24h1M34 25h1M67 27h1M67 28h1M89 28h1M93 28h2M66 29h1M91 29h2M66 30h1M14 32h1M20 32h1M22 32h1M14 33h1M23 33h3M14 34h1M72 34h1M77 34h1M13 35h1M84 35h1M13 36h1M38 36h3M85 36h1M94 36h1M41 37h3M94 37h1M93 38h1M93 39h1M26 41h1M67 41h1M15 42h1M26 42h1M68 42h1M15 43h1M26 43h1M83 43h3M99 43h1M103 43h2M16 44h1M25 44h1M80 44h3M101 44h2M16 45h1M25 45h1M44 45h1M44 46h1M44 47h1M43 48h1M5 49h2M10 49h1M43 49h1M7 50h2M94 50h1M95 51h1M79 52h1M79 53h1M79 54h1M80 55h1M15 56h1M80 56h1M14 57h1" />
<path stroke="#85623d" d="M76 8h1M75 9h1M46 10h1M73 10h2M47 11h1M71 11h2M48 12h2M70 12h1M73 12h1M49 13h3M69 13h2M74 13h1M49 14h1M52 14h1M68 14h2M48 15h1M53 15h2M67 15h1M54 16h2M67 16h1M35 17h2M55 17h1M66 17h1M31 18h7M55 18h1M65 18h2M37 19h3M55 19h2M65 19h1M38 20h1M40 20h2M56 20h1M64 20h1M37 21h2M42 21h2M56 21h1M63 21h2M43 22h2M56 22h2M63 22h1M44 23h2M57 23h1M62 23h1M14 24h1M44 24h2M57 24h1M61 24h1M15 25h1M45 25h1M57 25h1M60 25h2M16 26h2M45 26h2M57 26h4M18 27h2M46 27h1M57 27h5M17 28h1M20 28h1M47 28h1M57 28h3M61 28h2M83 28h2M16 29h1M21 29h1M48 29h1M57 29h3M82 29h7M22 30h1M48 30h3M57 30h3M80 30h3M23 31h1M50 31h2M57 31h2M78 31h2M81 31h1M52 32h1M57 32h2M76 32h2M81 32h2M26 33h1M52 33h2M57 33h2M75 33h2M27 34h1M53 34h2M57 34h2M66 34h2M73 34h3M28 35h2M54 35h1M57 35h2M65 35h10M30 36h2M55 36h1M57 36h2M63 36h3M29 37h1M32 37h1M44 37h1M57 37h2M61 37h2M64 37h1M28 38h1M33 38h1M45 38h1M56 38h6M65 38h1M34 39h1M46 39h2M57 39h4M34 40h2M48 40h2M57 40h3M35 41h1M47 41h1M50 41h1M57 41h2M35 42h2M46 42h1M51 42h1M57 42h2M36 43h1M52 43h1M57 43h2M93 43h2M36 44h1M52 44h1M57 44h2M79 44h1M92 44h7M37 45h1M52 45h2M57 45h2M78 45h1M90 45h3M37 46h1M52 46h2M57 46h2M76 46h2M88 46h2M91 46h1M37 47h1M53 47h2M57 47h2M74 47h2M86 47h2M91 47h2M38 48h1M53 48h2M57 48h2M73 48h4M84 48h3M15 49h2M38 49h1M54 49h2M57 49h2M72 49h1M76 49h9M11 50h7M38 50h2M54 50h5M70 50h2M81 50h1M17 51h3M39 51h1M54 51h5M70 51h1M18 52h1M20 52h2M39 52h2M55 52h4M69 52h2M17 53h2M22 53h2M40 53h1M55 53h4M68 53h2M23 54h3M41 54h1M55 54h4M67 54h2M26 55h7M42 55h1M55 55h4M66 55h2M33 56h4M42 56h2M55 56h4M65 56h2M37 57h8M55 57h4M65 57h2M44 58h2M55 58h4M64 58h2M45 59h3M55 59h4M63 59h3M47 60h3M55 60h4M62 60h4M49 61h2M55 61h4M62 61h3M51 62h2M55 62h4M61 62h4M52 63h1M55 63h4M60 63h4M53 64h1M55 64h4M60 64h4M53 65h10M54 66h9M54 67h8M54 68h8M54 69h7M54 70h7M54 71h7M54 72h7M54 73h7M54 74h7M54 75h7M54 76h7M54 77h7M54 78h7M54 79h7M54 80h7M54 81h7M54 82h7M54 83h7M54 84h7M54 85h7M54 86h7M54 87h7M54 88h7M54 89h7M54 90h7M54 91h7M54 92h7M54 93h7M55 94h6M56 95h5M57 96h4M58 97h3M59 98h2" />
<path stroke="#315c2e" d="M77 9h1M82 9h2M38 10h1M78 10h4M38 11h1M40 11h1M45 11h1M79 11h2M34 12h1M38 12h1M41 12h4M34 13h1M37 13h1M42 13h2M35 14h3M35 15h2M74 15h2M36 16h1M73 16h2M47 17h2M73 17h2M24 18h1M29 18h2M48 18h2M73 18h2M25 19h5M48 19h2M74 19h1M48 20h2M75 20h1M48 21h1M76 21h1M81 21h1M47 22h1M81 22h1M37 23h1M46 23h1M81 23h1M85 23h1M37 24h1M82 24h1M85 24h1M7 25h2M13 25h1M36 25h1M82 25h3M9 26h4M36 26h1M83 26h2M10 27h2M35 27h1M64 27h1M83 27h1M33 28h2M64 28h1M64 29h1M68 29h1M89 29h2M95 29h1M65 30h1M68 30h1M90 30h5M15 31h2M65 31h3M16 32h2M66 32h2M16 33h2M66 33h1M16 34h2M19 34h2M25 34h1M82 34h1M16 35h1M21 35h1M23 35h2M78 35h1M82 35h1M15 36h1M22 36h1M73 36h1M75 36h3M83 36h1M91 36h1M14 37h1M83 37h1M91 37h1M37 38h2M43 38h1M84 38h1M91 38h1M95 38h1M39 39h4M85 39h2M92 39h1M95 39h1M27 40h2M40 40h2M65 40h1M92 40h3M28 41h2M65 41h1M93 41h2M18 42h1M28 42h2M66 42h1M93 42h1M18 43h1M28 43h2M66 43h1M14 44h1M18 44h1M28 44h1M45 44h2M67 44h1M99 44h2M105 44h1M14 45h1M17 45h1M27 45h1M46 45h2M68 45h2M80 45h1M85 45h2M100 45h5M15 46h3M26 46h1M46 46h2M81 46h4M15 47h2M46 47h2M82 47h2M16 48h1M46 48h1M45 49h1M92 49h1M4 50h1M9 50h2M44 50h1M92 50h1M5 51h5M77 51h2M93 51h1M76 52h2M93 52h1M76 53h2M94 53h1M76 54h2M95 54h2M17 55h1M77 55h1M17 56h1M78 56h1M16 57h1M79 57h1M16 58h1M15 59h1M13 60h2" />
<path stroke="#3d2309" d="M54 94h1M54 95h2M54 96h3M54 97h4M54 98h5M54 99h7M54 100h7M54 101h7M54 102h7M54 103h7M54 104h7M54 105h7M54 106h7M54 107h7M54 108h7M54 109h7M54 110h7M54 111h7M54 112h7M54 113h7M54 114h7M54 115h7M54 116h7M54 117h7M54 118h7M54 119h7M55 120h4M55 121h1" />
<path stroke="#f5d1bc" d="M50 121h5M48 122h1M47 123h1M41 124h5" />
<path stroke="#a46f51" d="M58 121h11M55 122h2M59 124h2M73 124h2M70 125h5M38 126h5M60 126h13M44 127h16" />
<path stroke="#eba075" d="M49 122h6M57 122h3M62 122h9M48 123h2M52 123h7M60 123h12M46 124h3M50 124h2M53 124h6M61 124h12M39 125h31M43 126h17" />
</svg>