<svg xmlns="http://www.w3.org/2000/svg" viewBox="0 -0.5 25 26" shape-rendering="crispEdges">
<metadata>Made with Pixels to Svg https://codepen.io/shshaw/pen/XbxvNj</metadata>
<path stroke="#0f0a0c" d="M3 0h2M1 1h2M5 1h2M0 2h1M7 2h2M19 2h2M0 3h1M9 3h1M17 3h2M21 3h2M1 4h1M10 4h1M16 4h1M23 4h1M2 5h1M8 5h2M11 5h1M15 5h1M24 5h1M3 6h5M9 6h1M11 6h1M15 6h1M24 6h1M10 7h1M12 7h1M14 7h2M23 7h1M10 8h1M12 8h2M15 8h2M21 8h2M10 9h1M12 9h1M14 9h1M17 9h1M20 9h1M10 10h1M13 10h1M18 10h2M10 11h1M12 11h1M10 12h1M12 12h1M10 13h1M12 13h1M10 14h1M12 14h1M10 15h1M12 15h1M10 16h1M12 16h1M5 17h5M14 17h6M4 18h1M12 18h2M20 18h1M3 19h1M16 19h2M21 19h1M2 20h1M6 20h2M15 20h1M21 20h1M2 21h1M5 21h1M8 21h1M21 21h1M2 22h1M16 22h5M2 23h2M14 23h2M4 24h5M13 24h1M9 25h4" />
<path stroke="#9ff29b" d="M3 1h2M1 2h2M5 2h2M19 3h2M17 4h2M21 4h2M16 5h1M23 5h1" />
<path stroke="#408c3b" d="M3 2h2M1 3h2M5 3h3M3 4h2M19 4h2M17 5h2M22 5h1M19 6h5M17 7h4M18 8h2" />
<path stroke="#144511" d="M3 3h2M8 3h1M5 4h2M19 5h3M16 6h3" />
<path stroke="#315c2e" d="M2 4h1M7 4h2M3 5h5M16 7h1M21 7h2M17 8h1M20 8h1M18 9h2" />
<path stroke="#85623d" d="M9 4h1M10 5h1M10 6h1M11 7h1M11 8h1M14 8h1M11 9h1M13 9h1M11 10h2M11 11h1M11 12h1M11 13h1" />
<path stroke="#3d2309" d="M11 14h1M11 15h1M11 16h1M10 17h3M11 18h1" />
<path stroke="#f5d1bc" d="M5 18h4M4 19h1M3 20h1" />
<path stroke="#eba075" d="M9 18h1M18 18h2M5 19h6M13 19h3M18 19h2M4 20h2M8 20h7M16 20h4M3 21h2M6 21h2M9 21h6M3 22h11M4 23h1M9 23h4" />
<path stroke="#a46f51" d="M10 18h1M14 18h4M11 19h2M20 19h1M20 20h1M15 21h6M14 22h2M5 23h4M13 23h1M9 24h4" />
</svg>